# xmcd CD database file
#
# Track frame offsets:
#	150
#	14595
#	38820
#	69220
#	97134
#	119328
#	147181
#	168630
#	191002
#	214002
#	237369
#
# Disc length: 3456 seconds
#
# Revision: 0
# Processed by: cddbd v1.5.2PL0 Copyright (c) Steve Scherf et al.
# Submitted via: CDex 1.70beta2
#
DISCID=9e0d7e0b
DTITLE=Kristin Lomholt - Spell
DYEAR=2006
DGENRE=Jazz
TTITLE0=My Ship
TTITLE1=Simple Twist of Fate
TTITLE2=Black Crow
TTITLE3=You Are Gone
TTITLE4=My Heart Belong to Daddy
TTITLE5=Winter Moon - Wild is the Wind
TTITLE6=Guess Who I Saw Today  
TTITLE7=Blue Eyed Boy
TTITLE8=November Wind
TTITLE9=O Bem Do Mar
TTITLE10=Spell
EXTD=YEAR: 2006
EXTT0=
EXTT1=
EXTT2=
EXTT3=
EXTT4=
EXTT5=
EXTT6=
EXTT7=
EXTT8=
EXTT9=
EXTT10=
PLAYORDER=
